<svg width="32" height="45" viewBox="0 0 32 45" fill="none" xmlns="http://www.w3.org/2000/svg">
<path d="M0.0268864 17.9275C0.0268864 18.3251 0.0855605 18.7293 0.131194 19.1335C1.28507 28.7426 9.59038 37.915 16.0182 44.6557C16.2594 44.9165 25.2818 33.8601 26.0315 32.7649C29.1476 28.2015 31.7552 22.9406 31.9834 17.3147C32.3746 7.6534 25.8164 0 16.0182 0C6.09615 0 -0.475083 8.53347 0.0268864 17.9275Z" fill="#143B48"/>
<path fill-rule="evenodd" clip-rule="evenodd" d="M14.2408 9.04382C14.2408 8.485 14.6938 8.03198 15.2527 8.03198H22.6076C23.1665 8.03198 23.6195 8.485 23.6195 9.04382V19.9507C23.6195 20.5095 23.1665 20.9625 22.6076 20.9625H20.2211L20.4305 22.0232C20.4836 22.2901 20.4178 22.5669 20.2502 22.7814C20.0827 22.9958 19.83 23.1267 19.5582 23.1397C17.7927 23.2234 16.0133 23.2653 14.2408 23.2653C12.4684 23.2653 10.6889 23.2234 8.92346 23.1397C8.65163 23.1267 8.39897 22.9958 8.23142 22.7814C8.06388 22.5669 7.99808 22.2901 8.05119 22.0232L8.58851 19.3645C8.73738 18.611 9.26528 17.9881 9.98414 17.7177L11.296 17.2222L11.638 18.0666L10.3121 18.555C9.89325 18.7154 9.58532 19.0786 9.49567 19.518L9.42853 19.8582L8.96533 22.2046C9.48172 22.2605 10.9471 22.3093 11.4705 22.3093C13.3057 22.3512 15.148 22.3512 16.9832 22.3093L19.5512 22.2465L19.0209 19.5459C18.9337 19.1053 18.6249 18.7411 18.2044 18.583L16.8925 18.0945L17.2205 17.2222L18.4766 17.6898C19.1987 17.9556 19.7284 18.5807 19.8722 19.3366L20.0118 20.0344H22.6076C22.6511 20.0308 22.6846 19.9943 22.6844 19.9507V9.04382C22.6844 9.00142 22.65 8.96706 22.6076 8.96706H15.2527C15.2311 8.96509 15.2098 8.9723 15.1938 8.98691C15.1779 9.00153 15.1688 9.02219 15.1689 9.04382V11.6397C16.7274 12.1345 17.6413 13.7468 17.2653 15.3382C16.8893 16.9296 15.3504 17.9623 13.7353 17.7073C12.1201 17.4522 10.9743 15.9956 11.1069 14.3658C11.2395 12.736 12.6057 11.4837 14.2408 11.4932V9.04382ZM14.2362 16.6919C15.4146 16.6944 16.3723 15.7419 16.3761 14.5635C16.3761 13.3831 15.4213 12.4251 14.2408 12.4212C13.0624 12.4213 12.1068 13.3759 12.1055 14.5542C12.1042 15.7326 13.0578 16.6893 14.2362 16.6919ZM18.2672 10.5023H21.3934V11.4303H18.2672V10.5023ZM21.3934 12.6236H18.2672V13.5517H21.3934V12.6236Z" fill="white"/>
</svg>
