<svg width="32" height="45" viewBox="0 0 32 45" fill="none" xmlns="http://www.w3.org/2000/svg">
<path d="M0.0268864 18.0639C0.0268864 18.4645 0.0855605 18.8718 0.131194 19.2791C1.28507 28.9613 9.59037 38.2034 16.0182 44.9954C16.2594 45.2582 25.2818 34.1177 26.0315 33.0142C29.1476 28.4161 31.7552 23.1152 31.9834 17.4464C32.3745 7.71162 25.8164 0 16.0182 0C6.09615 0 -0.475083 8.5984 0.0268864 18.0639Z" fill="#EA5D1A"/>
<path fill-rule="evenodd" clip-rule="evenodd" d="M14.2389 9.11328C14.2389 8.55021 14.6919 8.09375 15.2507 8.09375H22.6057C23.1645 8.09375 23.6175 8.55021 23.6175 9.11328V20.1031C23.6175 20.6662 23.1645 21.1227 22.6057 21.1227H20.2192L20.4285 22.1914C20.4816 22.4603 20.4158 22.7393 20.2483 22.9554C20.0807 23.1714 19.8281 23.3033 19.5562 23.3164C17.7908 23.4008 16.0113 23.443 14.2389 23.443C12.4664 23.443 10.687 23.4008 8.92151 23.3164C8.64968 23.3033 8.39701 23.1714 8.22947 22.9554C8.06192 22.7393 7.99612 22.4603 8.04924 22.1914L8.58656 19.5125C8.73542 18.7533 9.26333 18.1256 9.98219 17.8531L11.2941 17.3539L11.636 18.2047L10.3102 18.6969C9.8913 18.8584 9.58337 19.2244 9.49372 19.6672L9.42658 20.0099L8.96338 22.3742C9.47976 22.4305 10.9452 22.4797 11.4685 22.4797C13.3038 22.5219 15.146 22.5219 16.9813 22.4797L19.5493 22.4164L19.0189 19.6953C18.9317 19.2513 18.6229 18.8843 18.2025 18.725L16.8906 18.2328L17.2185 17.3539L18.4746 17.825C19.1967 18.0928 19.7265 18.7227 19.8702 19.4844L20.0098 20.1875H22.6057C22.6492 20.1838 22.6826 20.1471 22.6824 20.1031V9.11328C22.6824 9.07057 22.6481 9.03594 22.6057 9.03594H15.2507C15.2292 9.03396 15.2078 9.04122 15.1919 9.05595C15.1759 9.07067 15.1669 9.09149 15.167 9.11328V11.7289C16.7255 12.2275 17.6393 13.8521 17.2633 15.4555C16.8873 17.059 15.3485 18.0996 13.7333 17.8427C12.1181 17.5857 10.9724 16.118 11.105 14.4758C11.2376 12.8336 12.6037 11.5718 14.2389 11.5812V9.11328ZM14.2342 16.8195C15.4126 16.8221 16.3703 15.8624 16.3742 14.675C16.3742 13.4856 15.4193 12.5203 14.2389 12.5164C13.0605 12.5164 12.1048 13.4783 12.1036 14.6656C12.1023 15.853 13.0558 16.8169 14.2342 16.8195ZM18.2653 10.5828H21.3915V11.518H18.2653V10.5828ZM21.3915 12.7203H18.2653V13.6555H21.3915V12.7203Z" fill="white"/>
</svg>
